<svg width="15" height="8" viewBox="0 0 15 8" fill="none" xmlns="http://www.w3.org/2000/svg">
<path d="M7.64062 8C7.375 8 7.14844 7.90625 6.94531 7.69531L0.984375 1.60156C0.8125 1.42969 0.726562 1.21875 0.726562 0.96875C0.726562 0.460937 1.11719 0.0546875 1.63281 0.0546875C1.88281 0.0546875 2.10937 0.164062 2.28125 0.328125L7.64062 5.82812L13 0.328125C13.1797 0.15625 13.4062 0.0546875 13.6562 0.0546875C14.1641 0.0546875 14.5547 0.460937 14.5547 0.96875C14.5547 1.21875 14.4687 1.42969 14.2969 1.60156L8.33594 7.69531C8.13281 7.89844 7.90625 8 7.64062 8Z" fill="white"/>
</svg>
