<svg width="8" height="15" viewBox="0 0 8 15" fill="none" xmlns="http://www.w3.org/2000/svg">
<path d="M0 7.64062C0 7.375 0.09375 7.14844 0.304688 6.94531L6.39844 0.984375C6.57031 0.8125 6.78125 0.726562 7.03125 0.726562C7.53906 0.726562 7.94531 1.11719 7.94531 1.63281C7.94531 1.88281 7.83594 2.10938 7.67188 2.28125L2.17188 7.64062L7.67188 13C7.84375 13.1797 7.94531 13.4062 7.94531 13.6562C7.94531 14.1641 7.53906 14.5547 7.03125 14.5547C6.78125 14.5547 6.57031 14.4688 6.39844 14.2969L0.304688 8.33594C0.101563 8.13281 0 7.90625 0 7.64062Z" fill="black"/>
</svg>
