<svg width="17" height="20" viewBox="0 0 17 20" fill="none" xmlns="http://www.w3.org/2000/svg">
<path d="M8.21681 9.63403C9.54032 9.63403 10.6864 9.1593 11.6228 8.22271C12.5593 7.28631 13.034 6.14054 13.034 4.81688C13.034 3.49361 12.5593 2.34772 11.6227 1.41097C10.6861 0.474684 9.54016 0 8.21681 0C6.89311 0 5.7473 0.474684 4.8109 1.41112C3.8745 2.34756 3.39963 3.49349 3.39963 4.81688C3.39963 6.14054 3.87447 7.28647 4.81106 8.2229C5.74765 9.15919 6.89358 9.63403 8.21681 9.63403ZM16.6455 15.3789C16.6185 14.9892 16.5639 14.5641 16.4835 14.1152C16.4023 13.6629 16.2978 13.2354 16.1727 12.8446C16.0434 12.4407 15.8677 12.0419 15.6504 11.6596C15.4248 11.2629 15.16 10.9174 14.8627 10.6332C14.5519 10.3358 14.1713 10.0967 13.7313 9.92223C13.2928 9.74879 12.8067 9.6609 12.2869 9.6609C12.0827 9.6609 11.8853 9.74465 11.504 9.99293C11.2329 10.1694 10.9611 10.3447 10.6884 10.5187C10.4264 10.6857 10.0715 10.8421 9.63309 10.9837C9.2054 11.1221 8.77115 11.1923 8.34252 11.1923C7.91393 11.1923 7.47979 11.1221 7.05163 10.9837C6.61374 10.8422 6.25882 10.6858 5.9971 10.5189C5.69359 10.3249 5.41898 10.1479 5.18078 9.99273C4.79993 9.74449 4.60231 9.66071 4.39817 9.66071C3.87814 9.66071 3.39232 9.74875 2.95393 9.92242C2.51416 10.0965 2.13346 10.3356 1.82233 10.6333C1.52527 10.9177 1.26023 11.263 1.035 11.6596C0.817888 12.0418 0.642108 12.4405 0.512695 12.8447C0.387696 13.2355 0.283205 13.6629 0.202033 14.1152C0.121604 14.5635 0.0669953 14.9887 0.0399643 15.3794C0.0130747 15.7725 -0.000253441 16.1664 3.64895e-06 16.5604C3.64895e-06 17.6044 0.331876 18.4495 0.986324 19.0729C1.63269 19.688 2.48791 20 3.52794 20H13.158C14.1981 20 15.053 19.6881 15.6995 19.0729C16.3541 18.45 16.686 17.6047 16.686 16.5602C16.6858 16.1573 16.6723 15.7598 16.6455 15.3789Z" fill="white"/>
</svg>
