<svg width="20" height="20" viewBox="0 0 20 20" fill="none" xmlns="http://www.w3.org/2000/svg">
<path d="M18.1644 2.09313L13.0624 0.17114C12.1444 -0.132858 11.2254 -0.0318591 10.5124 0.474137C10.2054 0.677136 10.0015 0.879135 9.79745 1.08113H5.91948C4.38949 1.08113 3.0625 2.39612 3.0625 3.91411V4.92611C3.0625 5.3301 3.3685 5.7361 3.87949 5.7361C4.38949 5.7361 4.69549 5.3301 4.69549 4.92611V3.91411C4.69549 3.20612 5.30748 2.70012 5.91948 2.70012H9.28746V17.37H5.91948C5.20549 17.37 4.69549 16.763 4.69549 16.155V15.144C4.69671 15.0368 4.6764 14.9304 4.63575 14.8312C4.5951 14.732 4.53494 14.642 4.45884 14.5664C4.38274 14.4909 4.29225 14.4314 4.19274 14.3915C4.09322 14.3516 3.9867 14.332 3.87949 14.334C3.3695 14.334 3.0625 14.638 3.0625 15.043V16.054C3.06341 16.4278 3.13811 16.7978 3.28231 17.1426C3.4265 17.4875 3.63736 17.8005 3.90279 18.0637C4.16822 18.3269 4.48299 18.5351 4.82906 18.6764C5.17513 18.8177 5.54569 18.8892 5.91948 18.887H9.79745C10.0015 19.089 10.2054 19.393 10.4094 19.494C10.9194 19.798 11.4294 20 12.0424 20C12.3484 20 12.7564 19.899 13.0624 19.798L18.1644 17.875C19.2874 17.471 20.0014 16.46 20.0014 15.245V4.62211C20.0014 3.50912 19.1854 2.39712 18.1644 2.09313Z" fill="white"/>
<path d="M4.38797 11.4997C4.24111 11.6477 4.15869 11.8477 4.15869 12.0562C4.15869 12.2647 4.24111 12.4647 4.38797 12.6127C4.48997 12.7127 4.69397 12.8147 4.89797 12.8147C5.10196 12.8147 5.30596 12.7137 5.40796 12.6127L7.44995 10.5877C7.55195 10.4867 7.55195 10.3857 7.65395 10.3857C7.65395 10.2847 7.75595 10.1837 7.75595 10.0817C7.75595 9.9817 7.75595 9.8797 7.65395 9.7787C7.65395 9.6777 7.55195 9.5767 7.44995 9.5767L5.40996 7.55272C5.25955 7.40665 5.05813 7.32495 4.84847 7.32495C4.6388 7.32495 4.43739 7.40665 4.28697 7.55272C4.14011 7.70069 4.05769 7.90073 4.05769 8.10921C4.05769 8.3177 4.14011 8.51773 4.28697 8.66571L5.00097 9.3737H0.815994C0.407997 9.3737 0 9.6777 0 10.1837C0 10.6887 0.305998 10.9927 0.815994 10.9927H5.10196L4.38797 11.4997Z" fill="white"/>
</svg>
