<svg width="12" height="12" viewBox="0 0 12 12" fill="none" xmlns="http://www.w3.org/2000/svg">
<path d="M6 12C4.39734 12 2.89062 11.3759 1.75734 10.2427C0.624117 9.10938 0 7.60266 0 6C0 4.39734 0.624117 2.89062 1.75734 1.75734C2.89062 0.624117 4.39734 0 6 0C7.60266 0 9.10938 0.624117 10.2427 1.75734C11.3759 2.89062 12 4.39734 12 6C12 7.60266 11.3759 9.10938 10.2427 10.2427C9.10938 11.3759 7.60266 12 6 12ZM6 1.40625C3.46699 1.40625 1.40625 3.46699 1.40625 6C1.40625 8.53301 3.46699 10.5938 6 10.5938C8.53301 10.5938 10.5938 8.53301 10.5938 6C10.5938 3.46699 8.53301 1.40625 6 1.40625Z" fill="#5B5A79"/>
<path d="M6.09375 9.28125C4.28447 9.28125 2.8125 7.80928 2.8125 6C2.8125 4.19072 4.28447 2.71875 6.09375 2.71875C6.75122 2.71875 7.38577 2.91267 7.92881 3.27956C8.25059 3.49692 8.33522 3.93403 8.11781 4.25578C7.90041 4.57753 7.46334 4.66221 7.14159 4.44478C6.83191 4.2356 6.46957 4.125 6.09375 4.125C5.05988 4.125 4.21875 4.96613 4.21875 6C4.21875 7.03387 5.05988 7.875 6.09375 7.875C6.4736 7.875 6.79233 7.76266 7.04107 7.54116C7.09048 7.49701 7.13663 7.44936 7.17916 7.39856C7.42868 7.10102 7.87214 7.06209 8.16973 7.31154C8.46729 7.56106 8.50624 8.00452 8.25675 8.3021C8.17041 8.40512 8.07673 8.50176 7.97644 8.59125C7.46948 9.04266 6.81853 9.28125 6.09375 9.28125Z" fill="#5B5A79"/>
</svg>
