<svg width="45" height="45" viewBox="0 0 45 45" fill="none" xmlns="http://www.w3.org/2000/svg">
<g clip-path="url(#clip0_1_410)">
<path d="M11.3248 21.2247H18.2248L19.9498 16.8747H16.4998L17.7748 13.1997C14.3998 14.3997 11.7748 17.4749 11.3248 21.2245V21.2247Z" fill="#5B5A79"/>
<path d="M18.9001 10.2753L20.6251 5.25049C12.375 6.15049 5.77505 12.9005 5.17505 21.2257H8.70005C9.22505 15.6757 13.5001 11.2505 18.9001 10.2757V10.2753Z" fill="#5B5A79"/>
<path d="M20.4752 21.2247H30.6752C30.0752 16.7247 26.4752 13.1999 21.9752 12.7495L20.7752 14.6995H25.0505L20.4752 21.2247Z" fill="#5B5A79"/>
<path d="M22.5 0C10.05 0 0 10.05 0 22.5C0 34.95 10.05 45 22.5 45C34.95 45 45 34.95 45 22.5C45 10.05 34.95 0 22.5 0ZM22.5 42.448C11.4752 42.448 2.55 33.5232 2.55 22.498C2.55 11.4728 11.4748 2.548 22.5 2.548C33.5252 2.548 42.45 11.4728 42.45 22.498C42.45 33.5232 33.5252 42.448 22.5 42.448Z" fill="#5B5A79"/>
<path d="M26.4 5.54999L23.475 10.35C29.0998 11.475 33.375 16.5 33.375 22.5V23.775H18.675L15.3 28.575L17.25 23.775H11.3252C11.9252 28.575 16.05 32.325 21.0004 32.325C23.4754 32.325 25.8004 31.425 27.6004 29.775H31.0504C28.7254 33 25.0504 34.875 21.0004 34.875C14.6252 34.875 9.30042 29.9998 8.70041 23.775H5.17542C5.85041 32.775 13.3506 39.8998 22.5002 39.8998C32.1002 39.8998 39.9002 32.0998 39.9002 22.4998C39.9002 14.2498 34.125 7.3498 26.4002 5.5498L26.4 5.54999Z" fill="#5B5A79"/>
</g>
<defs>
<clipPath id="clip0_1_410">
<rect width="45" height="45" fill="white"/>
</clipPath>
</defs>
</svg>
