<svg width="12" height="11" viewBox="0 0 12 11" fill="none" xmlns="http://www.w3.org/2000/svg">
<path d="M11.6945 4.68025L7.52777 0.513686C7.38215 0.367908 7.19655 0.268602 6.99447 0.228334C6.79239 0.188066 6.58291 0.208645 6.39253 0.287468C6.00401 0.449038 5.74976 0.829161 5.74976 1.2501V4.37507H1.5832C1.00816 4.37507 0.541412 4.84162 0.541412 5.41667C0.541412 5.99171 1.00816 6.45826 1.5832 6.45826H5.74976V9.58323C5.74976 10.0042 6.00401 10.3843 6.39253 10.5459C6.5829 10.6247 6.79237 10.6453 6.99444 10.605C7.19651 10.5648 7.38211 10.4655 7.52777 10.3198L11.6945 6.15308C12.1017 5.74586 12.1017 5.08747 11.6945 4.68025Z" fill="#5B5A79"/>
</svg>
