<svg width="17" height="25" viewBox="0 0 17 25" fill="none" xmlns="http://www.w3.org/2000/svg">
<path d="M15.6248 13.5415C15.0488 13.5415 14.5833 14.0083 14.5833 14.5831V18.7499C14.5833 19.3238 14.1165 19.7915 13.5415 19.7915H10.4165V4.16661C10.4165 3.27702 9.84985 2.48225 8.99781 2.1864L8.68942 2.08323H13.5415C14.1165 2.08323 14.5833 2.5509 14.5833 3.12502V6.24999C14.5833 6.82483 15.0488 7.29158 15.6248 7.29158C16.2009 7.29158 16.6664 6.82483 16.6664 6.24999V3.12502C16.6664 1.40213 15.2644 4.88277e-05 13.5415 4.88277e-05H2.34373C2.30408 4.88277e-05 2.27088 0.0177733 2.23235 0.022949C2.18216 0.0187498 2.13431 0 2.08338 0C0.934415 4.88276e-05 0 0.934317 0 2.08328V20.8331C0 21.7227 0.566645 22.5175 1.41869 22.8133L7.68743 24.9029C7.89992 24.9685 8.11125 24.9998 8.33327 24.9998C9.48223 24.9998 10.4165 24.0654 10.4165 22.9164V21.8748H13.5414C15.2643 21.8748 16.6664 20.4727 16.6664 18.7499V14.5831C16.6664 14.0083 16.2008 13.5415 15.6248 13.5415H15.6248Z" fill="#5B5A79"/>
</svg>
