<svg width="31" height="27" viewBox="0 0 31 27" fill="none" xmlns="http://www.w3.org/2000/svg">
<path d="M30.24 21.6V24.3C30.24 25.7893 29.0282 27 27.54 27H4.32C1.93752 27 0 25.0625 0 22.68V4.32C0 1.93752 1.93752 0 4.32 0H24.3C24.5127 -4.48319e-09 24.7234 0.0419024 24.9199 0.123315C25.1165 0.204728 25.2951 0.324056 25.4455 0.474487C25.5959 0.624918 25.7153 0.803505 25.7967 1.00005C25.8781 1.1966 25.92 1.40726 25.92 1.62C25.92 1.83274 25.8781 2.0434 25.7967 2.23995C25.7153 2.43649 25.5959 2.61508 25.4455 2.76551C25.2951 2.91594 25.1165 3.03527 24.9199 3.11669C24.7234 3.1981 24.5127 3.24 24.3 3.24H4.32C4.04192 3.25244 3.77936 3.37166 3.58698 3.57284C3.3946 3.77401 3.28723 4.04164 3.28723 4.32C3.28723 4.59836 3.3946 4.86599 3.58698 5.06716C3.77936 5.26834 4.04192 5.38756 4.32 5.4H27.54C29.0282 5.4 30.24 6.61068 30.24 8.1V10.8H24.84C21.8624 10.8 19.44 13.2224 19.44 16.2C19.44 19.1776 21.8624 21.6 24.84 21.6H30.24Z" fill="#5B5A79"/>
<path d="M30.243 12.9634V19.4434H24.843C23.9837 19.4434 23.1596 19.102 22.552 18.4944C21.9444 17.8868 21.603 17.0627 21.603 16.2034C21.603 15.3441 21.9444 14.52 22.552 13.9124C23.1596 13.3047 23.9837 12.9634 24.843 12.9634H30.243Z" fill="#5B5A79"/>
</svg>
