<svg width="27" height="27" viewBox="0 0 27 27" fill="none" xmlns="http://www.w3.org/2000/svg">
<path d="M18.2988 9.59766C13.501 9.59766 9.59766 13.501 9.59766 18.2988C9.59766 23.0967 13.501 27 18.2988 27C23.0967 27 27 23.0967 27 18.2988C27 13.501 23.0967 9.59766 18.2988 9.59766ZM18.2988 17.5078C19.6074 17.5078 20.6719 18.5723 20.6719 19.8809C20.6719 20.9108 20.0086 21.7806 19.0898 22.1082V23.8359H17.5078V22.1082C16.5891 21.7806 15.9258 20.9108 15.9258 19.8809H17.5078C17.5078 20.3173 17.8624 20.6719 18.2988 20.6719C18.7353 20.6719 19.0898 20.3173 19.0898 19.8809C19.0898 19.4444 18.7353 19.0898 18.2988 19.0898C16.9903 19.0898 15.9258 18.0253 15.9258 16.7168C15.9258 15.6869 16.5891 14.8171 17.5078 14.4895V12.7617H19.0898V14.4895C20.0086 14.8171 20.6719 15.6869 20.6719 16.7168H19.0898C19.0898 16.2804 18.7353 15.9258 18.2988 15.9258C17.8624 15.9258 17.5078 16.2804 17.5078 16.7168C17.5078 17.1532 17.8624 17.5078 18.2988 17.5078ZM8.80664 9.59766C13.6856 9.59766 17.5078 7.51275 17.5078 4.85156C17.5078 2.19037 13.6856 0 8.80664 0C3.92766 0 0 2.19037 0 4.85156C0 7.51275 3.92766 9.59766 8.80664 9.59766ZM0 17.801V19.0898C0 21.751 3.92766 23.8359 8.80664 23.8359C9.08339 23.8359 9.35155 23.8105 9.62402 23.7971C9.00896 22.8308 8.5608 21.7678 8.29828 20.6528C4.77009 20.5554 1.70659 19.4713 0 17.801ZM8.05365 19.0496C8.03551 18.8008 8.01562 18.5522 8.01562 18.2988C8.01562 17.4742 8.12368 16.6761 8.30793 15.9072C4.77536 15.8115 1.70812 14.7267 0 13.0549V14.3438C0 16.8638 3.54702 18.8442 8.05365 19.0496ZM8.80664 14.3438L8.80907 14.3436C9.32719 13.1055 10.0819 11.9803 11.0309 11.0311C10.3165 11.1214 9.57825 11.1797 8.80664 11.1797C5.05106 11.1797 1.78907 10.0598 0 8.30878V9.59766C0 12.2588 3.92766 14.3438 8.80664 14.3438Z" fill="#5B5A79"/>
</svg>
