<svg width="26" height="26" viewBox="0 0 26 26" fill="none" xmlns="http://www.w3.org/2000/svg">
<path d="M13 25.6668C6.14627 25.6668 0.449192 19.9697 0.449192 13.116C0.449192 6.24997 6.13397 0.565188 12.9877 0.565188C19.8537 0.565188 25.5508 6.24997 25.5508 13.116C25.5508 19.9697 19.866 25.6668 13 25.6668ZM5.77713 10.3474H20.2229V9.78142C20.2229 8.51403 19.5707 7.88649 18.3033 7.88649H7.69667C6.42928 7.88649 5.77713 8.50173 5.77713 9.78142V10.3474ZM7.69667 18.3701H18.3033C19.5707 18.3701 20.2229 17.7426 20.2229 16.4629V11.7502H5.77713V16.4629C5.77713 17.7426 6.42928 18.3701 7.69667 18.3701ZM8.28729 16.4629C7.94276 16.4629 7.69667 16.2291 7.69667 15.8846V14.7402C7.69667 14.3957 7.94276 14.1619 8.28729 14.1619H9.80077C10.1576 14.1619 10.4037 14.3957 10.4037 14.7402V15.8846C10.4037 16.2291 10.1576 16.4629 9.80077 16.4629H8.28729Z" fill="#5B5A79"/>
</svg>
