<svg width="22" height="25" viewBox="0 0 22 25" fill="none" xmlns="http://www.w3.org/2000/svg">
<path d="M10.7422 12.0425C12.3831 12.0425 13.8041 11.4491 14.9651 10.2784C16.1262 9.10789 16.7147 7.67567 16.7147 6.0211C16.7147 4.36701 16.1262 2.93464 14.9649 1.76371C13.8037 0.593355 12.3829 0 10.7422 0C9.10103 0 7.68041 0.593355 6.51943 1.7639C5.35844 2.93445 4.76967 4.36686 4.76967 6.0211C4.76967 7.67567 5.35839 9.10808 6.51962 10.2786C7.68084 11.449 9.10161 12.0425 10.7422 12.0425ZM21.1924 19.2236C21.1589 18.7365 21.0912 18.2051 20.9915 17.644C20.8909 17.0786 20.7613 16.5442 20.6061 16.0557C20.4459 15.5509 20.228 15.0523 19.9586 14.5745C19.679 14.0786 19.3506 13.6468 18.982 13.2914C18.5967 12.9197 18.1248 12.6208 17.5792 12.4028C17.0355 12.186 16.433 12.0761 15.7884 12.0761C15.5353 12.0761 15.2905 12.1808 14.8177 12.4912C14.4817 12.7118 14.1446 12.9309 13.8066 13.1484C13.4817 13.3571 13.0417 13.5526 12.4982 13.7296C11.9679 13.9026 11.4295 13.9903 10.8981 13.9903C10.3667 13.9903 9.82841 13.9026 9.29756 13.7296C8.75465 13.5527 8.31461 13.3573 7.99012 13.1486C7.61381 12.9061 7.27335 12.6849 6.97802 12.4909C6.50582 12.1806 6.26081 12.0759 6.00771 12.0759C5.36295 12.0759 4.76061 12.1859 4.21708 12.403C3.67184 12.6207 3.19984 12.9195 2.81408 13.2916C2.44577 13.6472 2.11717 14.0787 1.83791 14.5745C1.56874 15.0523 1.3508 15.5507 1.19035 16.0559C1.03537 16.5444 0.905815 17.0786 0.805176 17.644C0.705457 18.2043 0.637751 18.7359 0.604237 19.2242C0.570898 19.7156 0.554373 20.208 0.554692 20.7005C0.554692 22.0055 0.96616 23.0619 1.77757 23.8411C2.57895 24.61 3.6393 25 4.92877 25H16.8685C18.158 25 19.2179 24.6102 20.0195 23.8411C20.8311 23.0625 21.2426 22.0059 21.2426 20.7003C21.2424 20.1966 21.2256 19.6997 21.1924 19.2236Z" fill="#5B5A79"/>
</svg>
