<svg width="26" height="26" viewBox="0 0 26 26" fill="none" xmlns="http://www.w3.org/2000/svg">
<path d="M13 25.6668C6.14627 25.6668 0.449192 19.9697 0.449192 13.116C0.449192 6.24997 6.13397 0.565188 12.9877 0.565188C19.8537 0.565188 25.5508 6.24997 25.5508 13.116C25.5508 19.9697 19.866 25.6668 13 25.6668ZM10.859 19.4652C11.3389 19.4652 11.6711 19.1207 11.6711 18.6285V17.3488H14.6365C15.0057 17.3488 15.2518 17.0904 15.2518 16.7213C15.2518 16.3644 15.0057 16.0937 14.6365 16.0937H11.6711V14.851H13.8367C16.2115 14.851 17.7127 13.276 17.7127 11.0734C17.7127 8.89548 16.2238 7.29587 13.849 7.29587H10.8467C10.3422 7.29587 10.01 7.6404 10.01 8.14489V13.5959H8.89023C8.50878 13.5959 8.26268 13.8666 8.26268 14.2234C8.26268 14.5803 8.50878 14.8633 8.89023 14.8633H10.01V16.0937H8.90253C8.53339 16.0937 8.27499 16.3644 8.27499 16.7213C8.27499 17.0904 8.53339 17.3488 8.90253 17.3488H10.01V18.6285C10.01 19.1207 10.3668 19.4652 10.859 19.4652ZM11.6834 13.3621V8.82165H13.5537C15.2025 8.82165 16.0393 9.69529 16.0393 11.0857C16.0393 12.5008 15.1902 13.3867 13.5537 13.3867L11.6834 13.3621Z" fill="#5B5A79"/>
</svg>
