<svg width="20" height="21" viewBox="0 0 20 21" fill="none" xmlns="http://www.w3.org/2000/svg">
<path d="M19.696 18.8687L14.7656 13.7409C16.0337 12.2363 16.7288 10.3316 16.7279 8.36394C16.7279 3.75213 12.9757 0 8.36394 0C3.75214 0 0 3.75213 0 8.36394C0 12.9757 3.75214 16.7279 8.36394 16.7279C10.0953 16.7279 11.7451 16.2057 13.1557 15.2144L18.1236 20.3811C18.3312 20.5967 18.6105 20.7157 18.9098 20.7157C19.1931 20.7157 19.4618 20.6077 19.6658 20.4113C19.874 20.2105 19.9941 19.9354 19.9998 19.6462C20.0054 19.357 19.8962 19.0774 19.696 18.8687ZM8.36394 2.1819C11.7728 2.1819 14.546 4.95509 14.546 8.36394C14.546 11.7728 11.7728 14.546 8.36394 14.546C4.95509 14.546 2.1819 11.7728 2.1819 8.36394C2.1819 4.95509 4.95509 2.1819 8.36394 2.1819Z" fill="white"/>
</svg>
